<svg width="66" height="50" viewBox="0 0 66 50" fill="none" xmlns="http://www.w3.org/2000/svg">
<path d="M47.5472 0C48.6792 2.73585 48.8679 5.23585 48.1132 7.5C49.8113 8.91509 50.9434 11.1321 51.5094 14.1509C52.0755 17.1698 51.934 20.0943 51.0849 22.9245C52.1226 23.0189 53.6557 23.0896 55.684 23.1368C57.7123 23.184 59.5047 23.2783 61.0613 23.4198C62.6179 23.5613 63.9623 23.8208 65.0943 24.1981C58.7736 23.4434 54.6226 23.1132 52.6415 23.2075C51.3208 23.6792 50.6132 24.0566 50.5189 24.3396C57.4057 24.9057 62.217 25.6604 64.9528 26.6038C57.6887 25.3774 52.8774 24.717 50.5189 24.6226C48.4434 28.6792 44.3396 30.9434 38.2075 31.4151C38.3019 31.6981 38.6557 32.2406 39.2689 33.0425C39.8821 33.8443 40.2358 34.6698 40.3302 35.5189C40.4245 36.3679 40.4009 38.2783 40.2594 41.25C40.1179 44.2217 40.283 45.8019 40.7547 45.9906C40.9434 46.3679 41.2736 46.7453 41.7453 47.1226C42.217 47.5 42.5472 47.8302 42.7358 48.1132C41.9811 48.8679 40.9434 48.9387 39.6226 48.3255C38.3019 47.7123 37.5472 46.934 37.3585 45.9906C37.1698 45.2358 37.1698 43.4434 37.3585 40.6132C37.5472 37.783 37.2641 36.2736 36.5094 36.0849C36.5094 36.4623 36.4151 38.3491 36.2264 41.7453C36.0377 45.1415 36.1792 46.9811 36.6509 47.2641C36.7453 47.5472 36.9811 47.9481 37.3585 48.467C37.7358 48.9858 37.8774 49.4811 37.783 49.9528C35.7075 50.1415 34.3632 49.5283 33.75 48.1132C33.1368 46.6981 32.8538 44.5047 32.9009 41.533C32.9481 38.5613 32.8774 36.5566 32.6887 35.5189C32.3113 35.6132 32.1226 36.3679 32.1226 37.783C32.1226 38.2547 32.1462 39.033 32.1934 40.1179C32.2406 41.2028 32.2641 42.0519 32.2641 42.6651C32.2641 43.2783 32.217 44.0566 32.1226 45C32.0283 45.9434 31.8868 46.6745 31.6981 47.1934C31.5094 47.7123 31.2264 48.2311 30.8491 48.75C30.4717 49.2689 30 49.6226 29.434 49.8113C28.8679 50 28.1604 50.0472 27.3113 49.9528C27.217 49.4811 27.3585 48.9858 27.7358 48.467C28.1132 47.9481 28.3491 47.5943 28.4434 47.4057C28.9151 46.6509 29.0566 44.8349 28.8679 41.9575C28.6792 39.0802 28.6792 37.1226 28.8679 36.0849C28.0189 36.6509 27.6887 38.2311 27.8774 40.8255C28.066 43.4198 27.9717 45.3774 27.5943 46.6981C27.217 47.5472 26.4858 48.1368 25.4009 48.467C24.316 48.7972 23.3019 48.7736 22.3585 48.3962C22.4528 47.9245 22.783 47.5 23.3491 47.1226C23.9151 46.7453 24.2925 46.3679 24.4811 45.9906C24.8585 45.8962 24.9764 44.9292 24.8349 43.0896C24.6934 41.25 24.6698 40.0472 24.7642 39.4811C20.4245 40.3302 17.4528 39.434 15.8491 36.7925C15.7547 36.5094 15.5189 35.9434 15.1415 35.0943C14.7642 34.2453 14.3868 33.5849 14.0094 33.1132C13.8208 32.9245 13.3962 32.5943 12.7358 32.1226C12.0755 31.6509 11.6509 31.1321 11.4623 30.566C13.2547 30.0943 15.0236 30.8726 16.7689 32.9009C18.5142 34.9292 20.0943 35.9906 21.5094 36.0849C22.0755 36.0849 23.2075 35.8019 24.9057 35.2358C25.3774 33.5377 26.1321 32.3113 27.1698 31.5566C20.566 30.5189 16.3679 28.2075 14.5755 24.6226C9.38679 24.9057 4.57547 25.6132 0.141509 26.7453C3.06604 25.6132 7.83019 24.8585 14.434 24.4811C14.3396 24.1038 14.1745 23.8208 13.9387 23.6321C13.7028 23.4434 13.3962 23.3255 13.0189 23.2783C12.6415 23.2311 12.2877 23.184 11.9575 23.1368C11.6274 23.0896 11.2028 23.0896 10.684 23.1368C10.1651 23.184 9.81132 23.2075 9.62264 23.2075C6.03774 23.3962 2.83019 23.7264 0 24.1981C2.07547 23.4434 6.60377 23.066 13.5849 23.066C12.7358 20.8019 12.5236 18.066 12.9481 14.8585C13.3726 11.6509 14.3868 9.38679 15.9906 8.06604C15.5189 6.83962 15.3302 5.42453 15.4245 3.82075C15.5189 2.21698 15.8962 0.943396 16.5566 0C19.0094 0.0943396 21.7453 1.17925 24.7642 3.25472C27.8774 2.5 31.1321 2.16981 34.5283 2.26415C35 2.26415 35.7783 2.40566 36.8632 2.68868C37.9481 2.9717 38.7264 3.06604 39.1981 2.9717C39.6698 2.87736 40.3774 2.54717 41.3208 1.98113C42.2641 1.41509 42.783 1.08491 42.8774 0.990566C44.2925 0.330189 45.8491 0 47.5472 0Z" fill="black"/>
</svg>
