<svg width="50" height="38" viewBox="0 0 50 38" fill="none" xmlns="http://www.w3.org/2000/svg">
<path d="M41.8221 1.23087L38.6232 3.69772L25.0031 13.6885L11.383 3.59904L8.18415 1.13219C7.43055 0.516825 6.51062 0.133217 5.53832 0.0288938C4.56601 -0.0754293 3.58407 0.104117 2.71413 0.545289C1.8442 0.986461 1.1245 1.66987 0.644205 2.51085C0.163911 3.35183 -0.0558727 4.31343 0.0120816 5.2765V33.8673C0.0120816 34.7571 0.370166 35.6104 1.00756 36.2396C1.64496 36.8688 2.50945 37.2222 3.41086 37.2222H11.383V18.1781L25.0031 28.2676L38.6232 18.1781V37.2222H46.5953C47.4968 37.2222 48.3613 36.8688 48.9986 36.2396C49.636 35.6104 49.9941 34.7571 49.9941 33.8673V5.2765C50.041 4.32174 49.806 3.37408 49.3175 2.54871C48.829 1.72335 48.1081 1.05583 47.2425 0.627304C46.3769 0.198772 45.4038 0.0276833 44.4415 0.134833C43.4792 0.241982 42.5692 0.622755 41.8221 1.23087V1.23087Z" fill="black"/>
</svg>
