<svg width="50" height="50" viewBox="0 0 50 50" fill="none" xmlns="http://www.w3.org/2000/svg">
<path d="M11.3504 50V16.2651H0.632359V50H11.3504ZM5.99276 11.6564C9.73033 11.6564 12.0568 9.06594 12.0568 5.82874C11.9871 2.51855 9.73047 0 6.06369 0C2.39748 0 0 2.5186 0 5.82874C0 9.06609 2.32588 11.6564 5.92279 11.6564H5.99243H5.99276ZM17.2828 50H28.0008V31.1608C28.0008 30.1525 28.0705 29.1453 28.3535 28.4246C29.1283 26.4101 30.8919 24.3237 33.8526 24.3237C37.7311 24.3237 39.2826 27.4173 39.2826 31.9523V49.9998H50V30.6565C50 20.2944 44.7123 15.4731 37.6605 15.4731C31.8785 15.4731 29.3399 18.8542 27.9295 21.157H28.0011V16.2644H17.283C17.4237 19.4299 17.283 49.9993 17.283 49.9993L17.2828 50Z" fill="black"/>
</svg>
